<svg xmlns="http://www.w3.org/2000/svg" version="1.1" xmlns:xlink="http://www.w3.org/1999/xlink" xmlns:svgjs="http://svgjs.com/svgjs" width="1440" height="560" preserveAspectRatio="none" viewBox="0 0 1440 560">
    <g mask="url(&quot;#SvgjsMask1014&quot;)" fill="none">
        <rect width="1440" height="560" x="0" y="0" fill="rgba(43, 194, 255, 1)"></rect>
        <path d="M0,624.592C117.084,627.155,158.719,461.675,247.972,385.852C321.785,323.145,423.537,298.348,478.167,218.372C538.209,130.472,586.276,23.177,567.25,-81.558C548.373,-185.471,444.973,-245.923,378.86,-328.284C309.597,-414.57,274.338,-541.864,169.457,-577.117C64.372,-612.439,-41.834,-535.966,-148.435,-505.522C-255.964,-474.813,-384.273,-480.923,-458.923,-397.659C-533.747,-314.201,-536.961,-188.646,-532.96,-76.628C-529.409,22.809,-491.577,116.262,-437.583,199.838C-388.966,275.091,-305.379,312.746,-241.093,375.147C-156.402,457.355,-118,622.009,0,624.592" fill="#00aaee"></path>
        <path d="M1440 1166.708C1550.305 1144.214 1595.209 1009.547 1692.415 952.765 1796.382 892.034 1958.7930000000001 928.12 2022.9099999999999 826.206 2085.743 726.3340000000001 2012.063 596.793 1989.193 481.038 1967.571 371.602 1972.491 245.704 1892.796 167.64999999999998 1814.055 90.52999999999997 1683.534 120.50200000000001 1580.669 80.92599999999999 1464.777 36.337999999999965 1372.833-109.18899999999996 1252.4569999999999-78.71299999999997 1133.1680000000001-48.511999999999944 1121.652 121.40300000000002 1043.94 216.812 969.52 308.18 840.078 355.973 806.416 468.904 771.52 585.974 807.922 714.4739999999999 863.112 823.456 917.034 929.934 1008.8779999999999 1010.207 1111.4479999999999 1071.237 1211.484 1130.759 1325.942 1189.967 1440 1166.708" fill="#67d3ff"></path>
    </g>
    <defs>
        <mask id="SvgjsMask1014">
            <rect width="1440" height="560" fill="#ffffff"></rect>
        </mask>
    </defs>
</svg>